<?xml version="1.0" encoding="iso-8859-1"?>
<!-- Generator: Adobe Illustrator 16.0.0, SVG Export Plug-In . SVG Version: 6.00 Build 0)  -->
<!DOCTYPE svg PUBLIC "-//W3C//DTD SVG 1.1//EN" "http://www.w3.org/Graphics/SVG/1.1/DTD/svg11.dtd">
<svg version="1.1" id="Capa_1" xmlns="http://www.w3.org/2000/svg" xmlns:xlink="http://www.w3.org/1999/xlink" x="0px" y="0px"
	 width="463.938px" height="463.938px" viewBox="0 0 463.938 463.938" style="enable-background:new 0 0 463.938 463.938;"
	 xml:space="preserve" fill="#fff">
<g>
	<path d="M283.106,251.917c0.412-3.272,0.638-6.624,0.638-10.04c0-1.871-0.074-3.719-0.201-5.549l42.905-31.507l135.905-21.126
		l-3.642-23.422l-141.627,22.016l-39.545,29.04c-2.135-4.92-4.76-9.464-7.81-13.51c21.707-16.06,36.263-45.527,36.263-79.236
		c0-30.103-11.604-56.827-29.541-73.64l17.626-34.042L273.03,0l-16.416,31.701c-7.711-3.389-16-5.25-24.645-5.25
		c-8.644,0-16.934,1.861-24.645,5.25L190.91,0l-21.049,10.899l17.626,34.042c-17.938,16.813-29.542,43.538-29.542,73.64
		c0,33.709,14.556,63.177,36.261,79.236c-3.049,4.046-5.672,8.59-7.809,13.51l-39.543-29.039L5.228,160.273l-3.643,23.422
		l135.905,21.126l42.907,31.507c-0.127,1.83-0.201,3.678-0.201,5.549c0,3.417,0.223,6.767,0.635,10.039l-78.168-36.836
		l-81.857,48.754l12.984,21.801l70.266-41.848l80.916,38.131L98.39,294.49L46.382,412.019l23.203,10.27l46.332-104.699l62.262-9.041
		c-12.539,16.499-20.233,38.755-20.233,63.26c0,50.882,33.142,92.131,74.024,92.131s74.023-41.249,74.023-92.131
		c0-24.504-7.693-46.761-20.233-63.261l62.263,9.042l46.331,104.699l23.204-10.27L365.55,294.492l-86.58-12.573l80.914-38.132
		l70.266,41.848l12.984-21.801l-81.857-48.754L283.106,251.917z"/>
</g>
<g>
</g>
<g>
</g>
<g>
</g>
<g>
</g>
<g>
</g>
<g>
</g>
<g>
</g>
<g>
</g>
<g>
</g>
<g>
</g>
<g>
</g>
<g>
</g>
<g>
</g>
<g>
</g>
<g>
</g>
</svg>
